<svg width="960" height="720" viewBox="0 0 960 720" fill="none" xmlns="http://www.w3.org/2000/svg">
  <rect width="960" height="720" rx="48" fill="#E9F7FB"/>
  <circle cx="787" cy="158" r="102" fill="#C9EDF4"/>
  <circle cx="180" cy="548" r="132" fill="#D7F2DF"/>
  <rect x="118" y="130" width="724" height="470" rx="34" fill="#FFFFFF"/>
  <rect x="160" y="176" width="210" height="112" rx="24" fill="#EEF7FF"/>
  <rect x="388" y="176" width="190" height="112" rx="24" fill="#F4FBF5"/>
  <rect x="596" y="176" width="204" height="112" rx="24" fill="#FFF6E8"/>
  <rect x="160" y="320" width="408" height="228" rx="28" fill="#F8FBFD"/>
  <rect x="592" y="320" width="208" height="228" rx="28" fill="#F8FBFD"/>
  <rect x="194" y="356" width="170" height="18" rx="9" fill="#B8DCEC"/>
  <rect x="194" y="392" width="274" height="14" rx="7" fill="#D6E8F1"/>
  <rect x="194" y="422" width="240" height="14" rx="7" fill="#D6E8F1"/>
  <rect x="194" y="468" width="120" height="46" rx="23" fill="#0F4C81"/>
  <path d="M649 475C649 444.072 674.072 419 705 419H707C737.928 419 763 444.072 763 475V484C763 519.346 734.346 548 699 548H697C670.49 548 649 526.51 649 500V475Z" fill="#BFE7F1"/>
  <circle cx="704" cy="388" r="42" fill="#DDF4FA"/>
  <rect x="676" y="554" width="58" height="18" rx="9" fill="#D0E6EF"/>
  <rect x="672" y="576" width="68" height="12" rx="6" fill="#E4F1F6"/>
  <circle cx="265" cy="232" r="26" fill="#7FC7DA"/>
  <rect x="206" y="224" width="34" height="15" rx="7.5" fill="#0F4C81"/>
  <rect x="412" y="224" width="118" height="16" rx="8" fill="#5BAF7A"/>
  <rect x="620" y="224" width="126" height="16" rx="8" fill="#D99B2B"/>
</svg>
