<svg width="900" height="900" viewBox="0 0 900 900" fill="none" xmlns="http://www.w3.org/2000/svg">
  <rect width="900" height="900" rx="56" fill="#EAF8FC"/>
  <circle cx="717" cy="168" r="96" fill="#D0EEF5"/>
  <circle cx="178" cy="716" r="118" fill="#DFF5E5"/>
  <rect x="121" y="120" width="658" height="658" rx="44" fill="#FFFFFF"/>
  <path d="M332.598 238C275.952 238 230 283.952 230 340.598C230 383.831 256.792 420.806 294.696 435.802C297.375 436.862 299.214 439.38 299.426 442.253C302.651 485.881 312.963 561.191 341.754 616.389C350.063 632.32 372.698 630.259 378.047 613.103L419.586 479.855C423.718 466.599 476.282 466.599 480.414 479.855L521.953 613.103C527.302 630.259 549.937 632.32 558.246 616.389C587.037 561.191 597.349 485.881 600.574 442.253C600.786 439.38 602.625 436.862 605.304 435.802C643.208 420.806 670 383.831 670 340.598C670 283.952 624.048 238 567.402 238C534.725 238 505.618 253.283 486.754 277.123C484.693 279.727 481.297 281.25 477.977 280.948C468.862 280.119 459.505 279.699 450 279.699C440.495 279.699 431.138 280.119 422.023 280.948C418.703 281.25 415.307 279.727 413.246 277.123C394.382 253.283 365.275 238 332.598 238Z" fill="#F8FDFF" stroke="#B8DCEB" stroke-width="18"/>
  <path d="M331 273C290.697 273 258 305.697 258 346C258 379.532 280.604 407.962 311.423 416.748C317.538 418.492 321.84 423.848 322.305 430.189C324.988 466.725 333.242 527.418 355.086 570.566C358.369 577.051 367.819 576.31 370.049 569.39L402.753 467.926C411.172 441.793 488.828 441.793 497.247 467.926L529.951 569.39C532.181 576.31 541.631 577.051 544.914 570.566C566.758 527.418 575.012 466.725 577.695 430.189C578.16 423.848 582.462 418.492 588.577 416.748C619.396 407.962 642 379.532 642 346C642 305.697 609.303 273 569 273C541.681 273 517.867 288.014 505.489 310.215C503.596 313.611 500.017 315.761 496.134 315.412C481.013 314.055 465.652 313.366 450 313.366C434.348 313.366 418.987 314.055 403.866 315.412C399.983 315.761 396.404 313.611 394.511 310.215C382.133 288.014 358.319 273 331 273Z" fill="white"/>
  <path d="M450 315V445" stroke="#D3EBF4" stroke-width="12" stroke-linecap="round"/>
  <path d="M358 336L390 449" stroke="#D3EBF4" stroke-width="12" stroke-linecap="round"/>
  <path d="M542 336L510 449" stroke="#D3EBF4" stroke-width="12" stroke-linecap="round"/>
  <path d="M292 368H608" stroke="#D3EBF4" stroke-width="12" stroke-linecap="round"/>
  <circle cx="341" cy="240" r="22" fill="#9AD2E2"/>
  <circle cx="559" cy="240" r="22" fill="#9AD2E2"/>
</svg>
