<svg width="720" height="720" viewBox="0 0 720 720" fill="none" xmlns="http://www.w3.org/2000/svg">
  <rect width="720" height="720" rx="48" fill="#EFF8FC"/>
  <circle cx="577" cy="138" r="82" fill="#D6EEF7"/>
  <rect x="104" y="98" width="512" height="526" rx="36" fill="#FFFFFF"/>
  <rect x="146" y="146" width="118" height="118" rx="28" fill="#DDF3F9"/>
  <circle cx="205" cy="191" r="28" fill="#7BC0D4"/>
  <path d="M161 250C161 224.595 181.595 204 207 204H209C234.405 204 255 224.595 255 250V254H161V250Z" fill="#AFDDEA"/>
  <rect x="290" y="160" width="250" height="18" rx="9" fill="#B7DCEB"/>
  <rect x="290" y="194" width="180" height="14" rx="7" fill="#D8EAF2"/>
  <rect x="146" y="300" width="428" height="66" rx="20" fill="#F7FBFD"/>
  <rect x="166" y="322" width="180" height="14" rx="7" fill="#BEDDEB"/>
  <rect x="146" y="392" width="202" height="66" rx="20" fill="#F7FBFD"/>
  <rect x="372" y="392" width="202" height="66" rx="20" fill="#F7FBFD"/>
  <rect x="146" y="484" width="428" height="88" rx="24" fill="#F7FBFD"/>
  <rect x="166" y="510" width="186" height="14" rx="7" fill="#BEDDEB"/>
  <rect x="166" y="536" width="248" height="14" rx="7" fill="#D8EAF2"/>
  <rect x="146" y="594" width="176" height="18" rx="9" fill="#59A86D"/>
  <rect x="340" y="594" width="142" height="18" rx="9" fill="#F0C26B"/>
</svg>
